<?xml version="1.0" encoding="UTF-8" standalone="no"?>
<svg
   xmlns:dc="http://purl.org/dc/elements/1.1/"
   xmlns:cc="http://creativecommons.org/ns#"
   xmlns:rdf="http://www.w3.org/1999/02/22-rdf-syntax-ns#"
   xmlns:svg="http://www.w3.org/2000/svg"
   xmlns="http://www.w3.org/2000/svg"
   xmlns:sodipodi="http://sodipodi.sourceforge.net/DTD/sodipodi-0.dtd"
   xmlns:inkscape="http://www.inkscape.org/namespaces/inkscape"
   enable-background="new 0 0 48 48"
   height="56.12878"
   id="Layer_1"
   version="1.1"
   viewBox="0 0 56.12878 56.12878"
   width="56.12878"
   xml:space="preserve"
   inkscape:version="0.91 r13725"
   sodipodi:docname="icon.svg"><metadata
     id="metadata9"><rdf:RDF><cc:Work
         rdf:about=""><dc:format>image/svg+xml</dc:format><dc:type
           rdf:resource="http://purl.org/dc/dcmitype/StillImage" /><dc:title /></cc:Work></rdf:RDF></metadata><defs
     id="defs7"><inkscape:perspective
       sodipodi:type="inkscape:persp3d"
       inkscape:vp_x="0 : 28.06439 : 1"
       inkscape:vp_y="0 : 1000 : 0"
       inkscape:vp_z="56.12878 : 28.06439 : 1"
       inkscape:persp3d-origin="28.06439 : 18.709593 : 1"
       id="perspective3370" /></defs><sodipodi:namedview
     pagecolor="#ffffff"
     bordercolor="#666666"
     borderopacity="1"
     objecttolerance="10"
     gridtolerance="10"
     guidetolerance="10"
     inkscape:pageopacity="0"
     inkscape:pageshadow="2"
     inkscape:window-width="1280"
     inkscape:window-height="713"
     id="namedview5"
     showgrid="false"
     showborder="false"
     inkscape:zoom="9.8333333"
     inkscape:cx="30.927717"
     inkscape:cy="26.202958"
     inkscape:window-x="0"
     inkscape:window-y="0"
     inkscape:window-maximized="1"
     inkscape:current-layer="Layer_1"
     showguides="false"><inkscape:grid
       type="xygrid"
       id="grid4341" /></sodipodi:namedview><g
     id="g4614"
     style="fill:#ff0000;fill-opacity:0.74122804"><path
       id="path4577"
       d="m 38.970489,17.557017 -10.866303,0 c -1.42245,0 -2.588251,1.165801 -2.588251,2.588251 l 0,14.072255 c 0,1.42245 1.165801,2.588251 2.588251,2.588251 l 10.870654,0 c 1.42245,0 2.588249,-1.165801 2.588249,-2.588251 l 0,-14.072255 c -0.0044,-1.42245 -1.165799,-2.588251 -2.5926,-2.588251 z m 0.826501,15.216306 c 0,1.11795 -0.91785,2.0358 -2.035802,2.0358 l -8.547752,0 c -1.11795,0 -2.0358,-0.91785 -2.0358,-2.0358 l 0,-11.066403 c 0,-1.117952 0.91785,-2.035802 2.0358,-2.035802 l 8.552104,0 c 1.11795,0 2.035799,0.91785 2.035799,2.035802 l 0,11.066403 z"
       inkscape:connector-curvature="0"
       style="opacity:0.653;fill:#ff0000;fill-opacity:0.74122804" /><g
       style="opacity:0.653;fill:#ff0000;fill-opacity:0.74122804"
       transform="matrix(0.04350001,0,0,0.04350001,23.954285,17.557017)"
       id="g4579"><path
         id="path4581"
         d="m 319.8,117.5 -129.3,0 c -5.4,0 -9.8,-4.4 -9.8,-9.8 l 0,-0.7 c 0,-5.4 4.4,-9.8 9.8,-9.8 l 129.3,0 c 5.4,0 9.8,4.4 9.8,9.8 l 0,0.7 c 0.1,5.4 -4.4,9.8 -9.8,9.8 z"
         inkscape:connector-curvature="0"
         style="fill:#ff0000;fill-opacity:0.74122804" /><path
         id="path4583"
         d="m 319.8,175.2 -199.4,0 c -5.4,0 -9.8,-4.4 -9.8,-9.8 l 0,-0.7 c 0,-5.4 4.4,-9.8 9.8,-9.8 l 199.5,0 c 5.4,0 9.8,4.4 9.8,9.8 l 0,0.7 c 0,5.3 -4.5,9.8 -9.9,9.8 z"
         inkscape:connector-curvature="0"
         style="fill:#ff0000;fill-opacity:0.74122804" /><path
         id="path4585"
         d="m 319.8,232.8 -199.4,0 c -5.4,0 -9.8,-4.4 -9.8,-9.8 l 0,-0.7 c 0,-5.4 4.4,-9.8 9.8,-9.8 l 199.5,0 c 5.4,0 9.8,4.4 9.8,9.8 l 0,0.7 c 0,5.4 -4.5,9.8 -9.9,9.8 z"
         inkscape:connector-curvature="0"
         style="fill:#ff0000;fill-opacity:0.74122804" /><path
         id="path4587"
         d="m 319.8,290.5 -199.4,0 c -5.4,0 -9.8,-4.4 -9.8,-9.8 l 0,-0.7 c 0,-5.4 4.4,-9.8 9.8,-9.8 l 199.5,0 c 5.4,0 9.8,4.4 9.8,9.8 l 0,0.7 c 0,5.4 -4.5,9.8 -9.9,9.8 z"
         inkscape:connector-curvature="0"
         style="fill:#ff0000;fill-opacity:0.74122804" /><path
         id="path4589"
         d="m 319.8,348.2 -199.4,0 c -5.4,0 -9.8,-4.4 -9.8,-9.8 l 0,-0.7 c 0,-5.4 4.4,-9.8 9.8,-9.8 l 199.5,0 c 5.4,0 9.8,4.4 9.8,9.8 l 0,0.7 c 0,5.3 -4.5,9.8 -9.9,9.8 z"
         inkscape:connector-curvature="0"
         style="fill:#ff0000;fill-opacity:0.74122804" /></g></g><circle
     r="7.9860773"
     cy="29.980108"
     cx="23.19816"
     id="circle4299"
     style="fill:none;fill-rule:evenodd;stroke:#ececec;stroke-width:1.05019248px;stroke-linecap:butt;stroke-linejoin:miter;stroke-opacity:1" /><circle
     style="fill:#ffffff;fill-rule:evenodd;stroke:#0088aa;stroke-width:1.05019248px;stroke-linecap:butt;stroke-linejoin:miter;stroke-opacity:1"
     id="path3347"
     cx="23.47234"
     cy="29.705927"
     r="7.9860773" /><g
     id="g3460"
     transform="matrix(0.21663136,0,0,0.21663136,-25.504046,23.219875)"><path
       id="path3462"
       d="M 29.125,44.5 C 28.64,44.5 28.182,44.265 27.9,43.865 L 17.617,29.308 9.832,34.498 c -0.69,0.46 -1.621,0.273 -2.08,-0.416 -0.459,-0.689 -0.273,-1.62 0.416,-2.08 l 9,-6 c 0.675,-0.45 1.588,-0.281 2.057,0.383 l 9.733,13.779 10.724,-19.755 c 0.242,-0.445 0.693,-0.739 1.199,-0.779 0.506,-0.038 0.998,0.177 1.308,0.58 l 13,16.875 c 0.505,0.656 0.383,1.598 -0.273,2.104 -0.656,0.505 -1.597,0.384 -2.104,-0.273 L 41.219,23.866 30.444,43.716 c -0.248,0.455 -0.712,0.751 -1.23,0.781 -0.03,0.002 -0.06,0.003 -0.089,0.003 z"
       inkscape:connector-curvature="0"
       style="fill:#ffffff" /></g><g
     id="g3474"
     transform="matrix(0.20432535,-0.21028226,0.22767379,0.20481854,-16.861826,51.652468)"
     style="fill:#ececec"
     inkscape:transform-center-x="0.91515183"
     inkscape:transform-center-y="-1.9604199"><path
       style="fill:#ececec"
       d="m 145.90497,49.034807 c 0.21756,0.08882 0.46294,0.137581 0.71398,0.136719 l 13.38497,-0.04913 c 1.02544,-0.0038 1.87165,-0.97458 1.88487,-1.838176 0.0132,-0.861494 -0.79785,-1.825551 -1.82431,-1.82205 l -11.5877,0.04127 -0.158,-18.8375 c -0.10673,-0.877086 -0.82351,-1.755742 -1.51952,-1.799466 -0.578,-0.03632 -1.45072,0.451208 -1.93405,1.421966 -0.0525,6.410964 -0.11352,13.966117 -0.0801,21.108055 0.009,0.744025 0.4672,1.371868 1.11985,1.638317 z"
       id="path3476"
       inkscape:connector-curvature="0"
       sodipodi:nodetypes="scsacccsccs" /><path
       sodipodi:nodetypes="scsacccsccs"
       inkscape:connector-curvature="0"
       id="path3461"
       d="m 146.73979,47.84368 c 0.21756,0.08882 0.46294,0.137581 0.71398,0.136719 l 13.38497,-0.04913 c 1.02544,-0.0038 1.87165,-0.97458 1.88487,-1.838176 0.0132,-0.861494 -0.79785,-1.825551 -1.82431,-1.82205 l -11.5877,0.04127 -0.158,-18.8375 c -0.10673,-0.877086 -0.82351,-1.755742 -1.51952,-1.799466 -0.578,-0.03632 -1.45072,0.451208 -1.93405,1.421966 -0.0525,6.410964 -0.11352,13.966117 -0.0801,21.108055 0.009,0.744025 0.4672,1.371868 1.11985,1.638317 z"
       style="fill:#ececec" /></g><g
     id="Layer_2"
     transform="matrix(0.21663136,0,0,0.21663136,17.004429,22.406316)" /><g
     id="g3480"
     transform="matrix(0.20646273,-0.22091222,0.23005541,0.21517231,-17.353818,52.328916)"
     style="fill:#ff9955;fill-opacity:0.53070176"
     inkscape:transform-center-x="0.92472602"
     inkscape:transform-center-y="-2.0595209"><path
       style="fill:#ff9955;fill-opacity:0.53070176"
       d="m 145.90497,49.034807 c 0.21756,0.08882 0.46294,0.137581 0.71398,0.136719 l 13.38497,-0.04913 c 1.02544,-0.0038 1.87165,-0.97458 1.88487,-1.838176 0.0132,-0.861494 -0.79785,-1.825551 -1.82431,-1.82205 l -11.5877,0.04127 -0.158,-18.8375 c -0.10673,-0.877086 -0.82351,-1.755742 -1.51952,-1.799466 -0.578,-0.03632 -1.45072,0.451208 -1.93405,1.421966 -0.0525,6.410964 -0.11352,13.966117 -0.0801,21.108055 0.009,0.744025 0.4672,1.371868 1.11985,1.638317 z"
       id="path3482"
       inkscape:connector-curvature="0"
       sodipodi:nodetypes="scsacccsccs" /><path
       sodipodi:nodetypes="scsacccsccs"
       inkscape:connector-curvature="0"
       id="path3484"
       d="m 145.90497,49.034807 c 0.21756,0.08882 0.46294,0.137581 0.71398,0.136719 l 13.38497,-0.04913 c 1.02544,-0.0038 1.87165,-0.97458 1.88487,-1.838176 0.0132,-0.861494 -0.79785,-1.825551 -1.82431,-1.82205 l -11.5877,0.04127 -0.158,-18.8375 c -0.10673,-0.877086 -0.82351,-1.755742 -1.51952,-1.799466 -0.578,-0.03632 -1.45072,0.451208 -1.93405,1.421966 -0.0525,6.410964 -0.11352,13.966117 -0.0801,21.108055 0.009,0.744025 0.4672,1.371868 1.11985,1.638317 z"
       style="fill:#ff9955;fill-opacity:0.53070176" /></g><ellipse
     style="fill:#ffffff;stroke:#0088aa;stroke-width:1.35412788;stroke-opacity:1"
     id="path4301"
     cx="23.406431"
     cy="20.407902"
     rx="2.0161657"
     ry="0.20045921" /><ellipse
     ry="0.1977502"
     rx="1.1145921"
     cy="28.489889"
     cx="-4.84582"
     id="ellipse4335"
     style="fill:#ffffff;stroke:#0088aa;stroke-opacity:1"
     transform="matrix(0.70710678,-0.70710678,0.70710678,0.70710678,0,0)" /><ellipse
     ry="0.1977502"
     rx="1.1145921"
     cy="-4.7135024"
     cx="37.794968"
     id="ellipse4337"
     style="fill:#ffffff;stroke:#0088aa;stroke-opacity:1"
     transform="matrix(0.70710678,0.70710678,-0.70710678,0.70710678,0,0)" /><g
     id="Layer_2-8"
     transform="matrix(0.21663136,0,0,0.21663136,1.434705,-12.89266)" /></svg>